<?xml version="1.0" encoding="UTF-8"?>
<!DOCTYPE svg PUBLIC "-//W3C//DTD SVG 1.1//EN" "http://www.w3.org/Graphics/SVG/1.1/DTD/svg11.dtd">
<!-- Creator: CorelDRAW 2020 (64-Bit) -->
<svg xmlns="http://www.w3.org/2000/svg" xml:space="preserve" width="0.694441in" height="0.694441in" version="1.1" style="shape-rendering:geometricPrecision; text-rendering:geometricPrecision; image-rendering:optimizeQuality; fill-rule:evenodd; clip-rule:evenodd"
viewBox="0 0 694.44 694.44"
 xmlns:xlink="http://www.w3.org/1999/xlink"
 xmlns:xodm="http://www.corel.com/coreldraw/odm/2003">
 <defs>
  <style type="text/css">
   <![CDATA[
    .str0 {stroke:#61BFBF;stroke-width:41.67;stroke-linecap:round;stroke-miterlimit:2.61313}
    .fil2 {fill:none}
    .fil0 {fill:url(#id0)}
    .fil1 {fill:url(#id1)}
   ]]>
  </style>
  <linearGradient id="id0" gradientUnits="userSpaceOnUse" x1="59.87" y1="169.22" x2="584.8" y2="729.35">
   <stop offset="0" style="stop-opacity:1; stop-color:white"/>
   <stop offset="0.262745" style="stop-opacity:1; stop-color:#EAEAEA"/>
   <stop offset="0.729412" style="stop-opacity:1; stop-color:#D4D4D4"/>
   <stop offset="1" style="stop-opacity:1; stop-color:#CCCCCC"/>
  </linearGradient>
  <linearGradient id="id1" gradientUnits="userSpaceOnUse" xlink:href="#id0" x1="108.51" y1="664.66" x2="544.58" y2="199.36">
  </linearGradient>
 </defs>
 <g id="Layer_x0020_1">
  <metadata id="CorelCorpID_0Corel-Layer"/>
  <g id="Лампа">
   <g>
    <circle class="fil0" cx="347.22" cy="347.22" r="347.22"/>
    <circle class="fil1" cx="347.22" cy="347.22" r="288.44"/>
   </g>
   <g id="Лампа_0">
    <path class="fil2 str0" d="M293.34 241.3l0 -24.15c0,-41.12 33.68,-74.77 74.84,-74.77l99.82 0c41.17,0 74.84,33.65 74.84,74.77l0 254.02"/>
    <g>
     <g>
      <path class="fil2 str0" d="M153.91 381.75c0,-77.57 62.95,-140.45 140.6,-140.45 77.65,0 140.6,62.88 140.6,140.45"/>
      <line class="fil2 str0" x1="151.59" y1="381.75" x2="432.78" y2= "381.75" />
     </g>
     <g>
      <path class="fil2 str0" d="M359.85 381.76c0,36.06 -29.26,65.28 -65.35,65.28 -36.09,0 -65.35,-29.22 -65.35,-65.28"/>
      <line class="fil2 str0" x1="229.16" y1="381.76" x2="359.85" y2= "381.76" />
     </g>
    </g>
    <line class="fil2 str0" x1="293.35" y1="492.24" x2="293.35" y2= "552.06" />
    <line class="fil2 str0" x1="269.61" y1="486.05" x2="227.27" y2= "528.34" />
    <line class="fil2 str0" x1="317.08" y1="486.05" x2="359.42" y2= "528.34" />
   </g>
  </g>
 </g>
</svg>
