<?xml version="1.0" encoding="UTF-8"?>
<!DOCTYPE svg PUBLIC "-//W3C//DTD SVG 1.1//EN" "http://www.w3.org/Graphics/SVG/1.1/DTD/svg11.dtd">
<!-- Creator: CorelDRAW 2020 (64-Bit) -->
<svg xmlns="http://www.w3.org/2000/svg" xml:space="preserve" width="0.694441in" height="0.694441in" version="1.1" style="shape-rendering:geometricPrecision; text-rendering:geometricPrecision; image-rendering:optimizeQuality; fill-rule:evenodd; clip-rule:evenodd"
viewBox="0 0 694.44 694.44"
 xmlns:xlink="http://www.w3.org/1999/xlink"
 xmlns:xodm="http://www.corel.com/coreldraw/odm/2003">
 <defs>
  <style type="text/css">
   <![CDATA[
    .str0 {stroke:#61BFBF;stroke-width:41.67;stroke-linecap:round;stroke-miterlimit:2.61313}
    .fil2 {fill:none}
    .fil1 {fill:url(#id0)}
    .fil0 {fill:url(#id1)}
   ]]>
  </style>
  <linearGradient id="id0" gradientUnits="userSpaceOnUse" x1="108.51" y1="664.66" x2="544.58" y2="199.36">
   <stop offset="0" style="stop-opacity:1; stop-color:white"/>
   <stop offset="0.262745" style="stop-opacity:1; stop-color:#EAEAEA"/>
   <stop offset="0.729412" style="stop-opacity:1; stop-color:#D4D4D4"/>
   <stop offset="1" style="stop-opacity:1; stop-color:#CCCCCC"/>
  </linearGradient>
  <linearGradient id="id1" gradientUnits="userSpaceOnUse" xlink:href="#id0" x1="59.87" y1="169.22" x2="584.81" y2="729.35">
  </linearGradient>
 </defs>
 <g id="Layer_x0020_1">
  <metadata id="CorelCorpID_0Corel-Layer"/>
  <g id="Вилка">
   <g>
    <circle class="fil0" cx="347.22" cy="347.22" r="347.22"/>
    <circle class="fil1" cx="347.22" cy="347.22" r="288.44"/>
   </g>
   <g>
    <rect class="fil2 str0" x="183.84" y="302.36" width="326.76" height="46.08" rx="30.2" ry="23.04"/>
    <path class="fil2 str0" d="M486.27 348.44c0,57.41 -49.63,105.01 -114.56,113.77m-43.23 0c-64.93,-8.76 -114.56,-56.36 -114.56,-113.77 0,57.41 49.62,105.01 114.56,113.77"/>
    <line class="fil2 str0" x1="213.93" y1="348.44" x2="486.27" y2= "348.44" />
    <polyline class="fil2 str0" points="371.72,462.21 371.72,510.6 328.49,510.6 328.49,462.21 "/>
    <g>
     <path class="fil2 str0" d="M237.71 302.35l0 -94.64c0,-13.13 12.7,-23.88 28.22,-23.88 15.52,0 28.22,10.74 28.22,23.88l0 94.64"/>
     <line class="fil2 str0" x1="237.71" y1="302.35" x2="294.15" y2= "302.35" />
    </g>
    <g>
     <path class="fil2 str0" d="M400.29 302.35l0 -94.64c0,-13.13 12.7,-23.88 28.22,-23.88 15.52,0 28.22,10.74 28.22,23.88l0 94.64"/>
     <line class="fil2 str0" x1="400.29" y1="302.35" x2="456.74" y2= "302.35" />
    </g>
   </g>
  </g>
 </g>
</svg>
