<?xml version="1.0" encoding="UTF-8"?>
<!DOCTYPE svg PUBLIC "-//W3C//DTD SVG 1.1//EN" "http://www.w3.org/Graphics/SVG/1.1/DTD/svg11.dtd">
<!-- Creator: CorelDRAW 2020 (64-Bit) -->
<svg xmlns="http://www.w3.org/2000/svg" xml:space="preserve" width="0.694441in" height="0.694441in" version="1.1" style="shape-rendering:geometricPrecision; text-rendering:geometricPrecision; image-rendering:optimizeQuality; fill-rule:evenodd; clip-rule:evenodd"
viewBox="0 0 694.44 694.44"
 xmlns:xlink="http://www.w3.org/1999/xlink"
 xmlns:xodm="http://www.corel.com/coreldraw/odm/2003">
 <defs>
  <style type="text/css">
   <![CDATA[
    .str0 {stroke:#61BFBF;stroke-width:41.67;stroke-linecap:round;stroke-miterlimit:2.61313}
    .fil2 {fill:none}
    .fil0 {fill:url(#id0)}
    .fil1 {fill:url(#id1)}
   ]]>
  </style>
  <linearGradient id="id0" gradientUnits="userSpaceOnUse" x1="59.87" y1="169.22" x2="584.8" y2="729.35">
   <stop offset="0" style="stop-opacity:1; stop-color:white"/>
   <stop offset="0.262745" style="stop-opacity:1; stop-color:#EAEAEA"/>
   <stop offset="0.729412" style="stop-opacity:1; stop-color:#D4D4D4"/>
   <stop offset="1" style="stop-opacity:1; stop-color:#CCCCCC"/>
  </linearGradient>
  <linearGradient id="id1" gradientUnits="userSpaceOnUse" xlink:href="#id0" x1="108.51" y1="664.66" x2="544.58" y2="199.36">
  </linearGradient>
 </defs>
 <g id="Layer_x0020_1">
  <metadata id="CorelCorpID_0Corel-Layer"/>
  <g id="Телефонная_x0020_трубка">
   <g>
    <circle class="fil0" cx="347.22" cy="347.22" r="347.22"/>
    <circle class="fil1" cx="347.22" cy="347.22" r="288.44"/>
   </g>
   <g id="Телефонная_x0020_трубка_0">
    <path class="fil2 str0" d="M184 488.78l19.89 19.89c45.58,45.58 120.16,45.58 165.74,0l139.03 -139.03c45.58,-45.58 45.58,-120.16 0,-165.74l-19.89 -19.89"/>
    <path class="fil2 str0" d="M255.26 417.52c24.27,24.26 63.97,24.26 88.24,0l74.02 -74.02c24.26,-24.26 24.26,-63.97 0,-88.23"/>
    <line class="fil2 str0" x1="417.51" y1="255.26" x2="488.77" y2= "184" />
    <line class="fil2 str0" x1="255.26" y1="417.52" x2="184" y2= "488.78" />
    <rect class="fil2 str0" transform="matrix(-0.210488 -0.21049 -0.22803 0.228032 480.485 175.708)" width="114.58" height="312.5"/>
    <rect class="fil2 str0" transform="matrix(-0.210488 -0.21049 -0.22803 0.228032 246.968 409.227)" width="114.58" height="312.5"/>
   </g>
  </g>
 </g>
</svg>
