<?xml version="1.0" encoding="UTF-8"?>
<!DOCTYPE svg PUBLIC "-//W3C//DTD SVG 1.1//EN" "http://www.w3.org/Graphics/SVG/1.1/DTD/svg11.dtd">
<!-- Creator: CorelDRAW 2020 (64-Bit) -->
<svg xmlns="http://www.w3.org/2000/svg" xml:space="preserve" width="0.694441in" height="0.694441in" version="1.1" style="shape-rendering:geometricPrecision; text-rendering:geometricPrecision; image-rendering:optimizeQuality; fill-rule:evenodd; clip-rule:evenodd"
viewBox="0 0 694.44 694.44"
 xmlns:xlink="http://www.w3.org/1999/xlink"
 xmlns:xodm="http://www.corel.com/coreldraw/odm/2003">
 <defs>
  <style type="text/css">
   <![CDATA[
    .str0 {stroke:#61BFBF;stroke-width:41.67;stroke-linecap:round;stroke-miterlimit:2.61313}
    .fil2 {fill:none}
    .fil0 {fill:url(#id0)}
    .fil1 {fill:url(#id1)}
   ]]>
  </style>
  <linearGradient id="id0" gradientUnits="userSpaceOnUse" x1="59.87" y1="169.22" x2="584.8" y2="729.35">
   <stop offset="0" style="stop-opacity:1; stop-color:white"/>
   <stop offset="0.262745" style="stop-opacity:1; stop-color:#EAEAEA"/>
   <stop offset="0.729412" style="stop-opacity:1; stop-color:#D4D4D4"/>
   <stop offset="1" style="stop-opacity:1; stop-color:#CCCCCC"/>
  </linearGradient>
  <linearGradient id="id1" gradientUnits="userSpaceOnUse" xlink:href="#id0" x1="108.51" y1="664.66" x2="544.58" y2="199.36">
  </linearGradient>
 </defs>
 <g id="Layer_x0020_1">
  <metadata id="CorelCorpID_0Corel-Layer"/>
  <g id="Письмо">
   <g>
    <circle class="fil0" cx="347.22" cy="347.22" r="347.22"/>
    <circle class="fil1" cx="347.22" cy="347.22" r="288.44"/>
   </g>
   <g id="Письмо_0">
    <path class="fil2 str0" d="M182.89 198.54l164.33 0 164.33 0c8.61,0 16.43,3.52 22.11,9.2 2.84,2.83 5.13,6.21 6.72,9.95 1.59,3.74 2.47,7.85 2.47,12.15l0 58.69 0 58.69 0 58.69 0 58.69c0,8.61 -3.52,16.43 -9.19,22.11 -5.67,5.67 -13.5,9.2 -22.11,9.2l-164.33 0 -164.33 0c-8.61,0 -16.43,-3.52 -22.11,-9.2 -5.67,-5.67 -9.19,-13.5 -9.19,-22.11l0 -58.69 0 -58.69 0 -58.69 0 -58.69c0,-8.61 3.52,-16.43 9.19,-22.11 5.67,-5.67 13.5,-9.2 22.11,-9.2z"/>
    <polyline class="fil2 str0" points="151.59,288.53 347.22,421.37 542.85,288.53 "/>
   </g>
  </g>
 </g>
</svg>
