<?xml version="1.0" encoding="UTF-8"?>
<!DOCTYPE svg PUBLIC "-//W3C//DTD SVG 1.1//EN" "http://www.w3.org/Graphics/SVG/1.1/DTD/svg11.dtd">
<!-- Creator: CorelDRAW 2020 (64-Bit) -->
<svg xmlns="http://www.w3.org/2000/svg" xml:space="preserve" width="0.694441in" height="0.694441in" version="1.1" style="shape-rendering:geometricPrecision; text-rendering:geometricPrecision; image-rendering:optimizeQuality; fill-rule:evenodd; clip-rule:evenodd"
viewBox="0 0 694.44 694.44"
 xmlns:xlink="http://www.w3.org/1999/xlink"
 xmlns:xodm="http://www.corel.com/coreldraw/odm/2003">
 <defs>
  <style type="text/css">
   <![CDATA[
    .str0 {stroke:#61BFBF;stroke-width:41.67;stroke-linecap:round;stroke-miterlimit:2.61313}
    .fil2 {fill:none}
    .fil0 {fill:url(#id0)}
    .fil1 {fill:url(#id1)}
   ]]>
  </style>
  <linearGradient id="id0" gradientUnits="userSpaceOnUse" x1="59.87" y1="169.22" x2="584.8" y2="729.35">
   <stop offset="0" style="stop-opacity:1; stop-color:white"/>
   <stop offset="0.262745" style="stop-opacity:1; stop-color:#EAEAEA"/>
   <stop offset="0.729412" style="stop-opacity:1; stop-color:#D4D4D4"/>
   <stop offset="1" style="stop-opacity:1; stop-color:#CCCCCC"/>
  </linearGradient>
  <linearGradient id="id1" gradientUnits="userSpaceOnUse" xlink:href="#id0" x1="108.51" y1="664.66" x2="544.58" y2="199.36">
  </linearGradient>
 </defs>
 <g id="Layer_x0020_1">
  <metadata id="CorelCorpID_0Corel-Layer"/>
  <g id="Листик">
   <g>
    <circle class="fil0" cx="347.22" cy="347.22" r="347.22"/>
    <circle class="fil1" cx="347.22" cy="347.22" r="288.44"/>
   </g>
   <g id="Листик_0">
    <path class="fil2 str0" d="M433.98 201.17c6.72,5.32 13.02,11.2 18.84,17.54 30.15,32.77 43.74,74.83 43.74,114.79 0,44.83 -16.72,85.41 -43.74,114.79 -27.02,29.37 -64.36,47.54 -105.6,47.54 -41.24,0 -78.57,-18.17 -105.6,-47.54 -27.02,-29.38 -43.74,-69.96 -43.74,-114.79 0,-44.83 16.72,-85.41 43.74,-114.79 5.69,-6.19 12,-12.11 18.87,-17.56"/>
    <polyline class="fil2 str0" points="260.49,201.15 347.22,123.2 433.98,201.17 "/>
    <line class="fil2 str0" x1="347.22" y1="571.23" x2="347.22" y2= "219.36" />
    <line class="fil2 str0" x1="347.22" y1="396.54" x2="252.62" y2= "288.85" />
    <line class="fil2 str0" x1="342.84" y1="396.54" x2="437.44" y2= "288.85" />
   </g>
  </g>
 </g>
</svg>
